<?xml version="1.0" encoding="UTF-8" standalone="no"?>
<!-- Created with Inkscape (http://www.inkscape.org/) -->

<svg
   xmlns:dc="http://purl.org/dc/elements/1.1/"
   xmlns:cc="http://creativecommons.org/ns#"
   xmlns:rdf="http://www.w3.org/1999/02/22-rdf-syntax-ns#"
   xmlns:svg="http://www.w3.org/2000/svg"
   xmlns="http://www.w3.org/2000/svg"
   xmlns:sodipodi="http://sodipodi.sourceforge.net/DTD/sodipodi-0.dtd"
   xmlns:inkscape="http://www.inkscape.org/namespaces/inkscape"
   width="210mm"
   height="297mm"
   viewBox="0 0 210 297"
   version="1.1"
   id="svg8"
   inkscape:version="0.92.2 (unknown)"
   sodipodi:docname="drawing.svg">
  <defs
     id="defs2" />
  <sodipodi:namedview
     id="base"
     pagecolor="#ffffff"
     bordercolor="#666666"
     borderopacity="1.0"
     inkscape:pageopacity="0.0"
     inkscape:pageshadow="2"
     inkscape:zoom="0.70000001"
     inkscape:cx="608.9928"
     inkscape:cy="822.20908"
     inkscape:document-units="mm"
     inkscape:current-layer="layer1"
     showgrid="false"
     inkscape:window-width="1920"
     inkscape:window-height="1056"
     inkscape:window-x="0"
     inkscape:window-y="24"
     inkscape:window-maximized="1"
     showguides="true"
     inkscape:guide-bbox="true" />
  <metadata
     id="metadata5">
    <rdf:RDF>
      <cc:Work
         rdf:about="">
        <dc:format>image/svg+xml</dc:format>
        <dc:type
           rdf:resource="http://purl.org/dc/dcmitype/StillImage" />
        <dc:title />
      </cc:Work>
    </rdf:RDF>
  </metadata>
  <g
     inkscape:label="Layer 1"
     inkscape:groupmode="layer"
     id="layer1">
    <path
       id="path4878"
       d="m 17.086049,56.334321 c 2.679975,-4.14598 6.194535,-7.333234 9.54793,-10.587797 3.902576,-3.702918 7.969491,-7.140448 12.219884,-10.204283 7.049196,-5.081315 4.900276,-3.704017 9.523993,-6.486151 1.426963,-0.648383 4.363241,-2.678257 5.845242,-1.007634 0.612102,0.690004 0.592791,1.502953 0.726339,2.42399 0.02273,2.797961 -0.933586,5.432872 -0.972776,8.224038 -0.0066,0.438846 0.04282,0.876226 0.06419,1.31434 0.09928,0.338232 0.144143,0.709185 0.297874,1.014648 1.07852,2.143194 4.451193,0.977226 5.953084,0.534916 0.617692,-0.259706 1.241435,-0.498342 1.853075,-0.779138 1.383433,-0.63512 2.351064,-1.159782 3.658427,-2.000401 0.548731,-0.352836 2.157571,-1.496971 1.619281,-1.120297 -3.59644,2.516632 -4.060841,2.966531 -2.024376,1.245232 1.984168,-1.886199 3.943751,-3.504886 6.332135,-4.785491 0.195832,-0.104987 0.304433,0.427819 0.312101,0.691724 0.01586,0.549736 -0.808829,1.633655 -0.960439,1.869597 -4.064385,6.340051 -8.214498,12.582228 -12.518881,18.675633 -5.527965,7.688211 -11.355806,15.049234 -17.448324,22.054154 -4.152628,4.774512 -5.841796,6.501719 -10.110545,11.071461 -4.328933,4.567434 -8.739966,9.026389 -13.312821,13.217178 -1.15419,1.05776 -4.673793,4.16447 -6.098532,5.22316 -2.1309182,1.58344 -4.3129029,3.05917 -6.4693589,4.58875 -0.5045342,0.1997 -0.9859508,0.54128 -1.5136015,0.59906 -0.9227486,0.10109 -1.2849219,-0.6299 -1.2084613,-1.71566 0.1718925,-2.44108 2.5259549,-5.82558 3.6077793,-7.62737 C 12.818568,92.704951 20.779334,83.957093 28.448441,74.926941 37.44074,64.305721 46.359667,53.590034 54.860337,42.363116 c 3.875799,-5.17587 7.465761,-10.701748 10.426474,-16.744317 1.399685,-2.856653 1.714132,-3.804074 2.864736,-6.709941 0.859969,-2.708192 2.407205,-6.43696 2.184219,-9.4706322 C 70.316325,9.1751303 70.236156,8.9244525 70.18633,8.6675673 70.013506,8.3149108 69.764749,7.7170616 69.368468,7.6594806 69.161296,7.629315 68.650603,8.1848216 68.834973,8.0641385 70.26585,7.1275364 71.665789,6.1203039 73.081199,5.1483897 70.774269,7.9865261 69.31002,11.70539 67.735097,15.17923 62.842437,25.797335 58.772016,36.940501 54.802613,48.118745 49.053189,64.647198 43.840807,81.449507 38.74585,98.299906 c -2.627133,8.512764 -4.821011,17.208614 -6.944252,25.928464 0,0 -4.618228,2.69458 -4.618228,2.69458 v 0 c 2.351513,-8.79483 4.670446,-17.60584 7.407537,-26.23332 5.184576,-16.803097 10.397076,-33.597397 16.015334,-50.187598 3.838444,-11.085614 7.757701,-22.146976 12.450247,-32.73046 1.506166,-3.467477 2.904644,-7.105426 5.004157,-10.0992667 1.681516,-1.2592128 3.333465,-2.5809758 5.044549,-3.7776457 0.733166,-0.5127497 1.598164,0.9654608 1.828522,1.6017368 0.06151,0.3118972 0.158884,0.6162006 0.184572,0.9356706 0.06834,0.8502826 -0.06905,1.9559846 -0.213439,2.7592399 -0.445172,2.4764781 -1.269603,4.8083301 -2.106483,7.1120641 -1.161576,2.900886 -1.535953,3.983938 -2.937702,6.830542 -3.014681,6.122049 -6.660145,11.725745 -10.608736,16.958554 -8.559623,11.234654 -17.520292,21.976694 -26.528488,32.657867 -7.539853,8.926585 -15.366098,17.579322 -22.05066,27.527126 -1.2985074,2.17158 -2.8363955,4.38296 -3.5160528,7.0138 -0.057098,0.2211 -0.1770424,0.52688 -0.0468,0.69401 0.4794251,0.61538 1.8870323,-0.70036 2.0344875,-0.48779 -0.7502333,0.56539 -2.9373219,2.37415 -2.2507115,1.69615 0.8794018,-0.86835 1.9004946,-1.49146 2.8327403,-2.27087 1.1776565,-0.98457 2.3467105,-1.98568 3.4960225,-3.02026 4.65579,-4.191022 9.135755,-8.678932 13.526511,-13.283677 4.259182,-4.538859 5.99091,-6.299544 10.124704,-11.04786 6.036472,-6.933838 11.800056,-14.237142 17.241092,-21.888258 4.170876,-5.981897 8.19731,-12.100216 12.051878,-18.399512 0.140924,-0.220428 0.789226,-1.369409 1.015824,-1.354143 0.144774,0.0098 0.164609,0.472555 0.295396,0.395084 7.293036,-4.320351 4.771058,-3.914981 2.861604,-1.824552 -2.868402,2.511315 -1.219386,1.127303 -6.998175,5.231495 -2.274026,1.615051 -4.70518,2.87219 -7.226716,3.75932 -1.974365,0.500162 -5.163764,1.458347 -6.466226,-1.247789 -0.174933,-0.363439 -0.234176,-0.794855 -0.351268,-1.192281 -0.02684,-0.470367 -0.08259,-0.939573 -0.08033,-1.411094 0.01317,-2.74646 0.909849,-5.334031 0.999743,-8.068117 -0.05921,-0.580489 -0.02081,-1.406015 -0.464236,-1.840846 -1.288289,-1.26339 -4.214696,0.782569 -5.382185,1.285887 -0.794634,0.484644 -1.53124,1.156395 -2.383892,1.453931 -0.579203,0.202126 2.061628,-1.537506 1.542706,-1.160398 -4.22642,3.071414 -8.337288,6.378642 -12.204369,10.113598 -3.244339,3.158811 -6.625558,6.254947 -9.266898,10.219426 0,0 -4.971565,2.691607 -4.971565,2.691607 z"
       inkscape:connector-curvature="0"
       style="stroke-width:0.80610579" />
    <path
       id="path4892"
       d="m 42.694595,93.932969 c 3.086718,-1.895732 6.159129,-3.827183 9.196756,-5.840886 5.805029,-4.041984 -0.02027,0.07622 -0.04616,0.07759 -0.794839,0.04168 1.355766,-1.030822 2.023822,-1.565354 1.564504,-1.25178 3.035678,-2.594567 4.472076,-4.058266 0.336721,-0.373939 2.566913,-2.866578 2.049993,-3.59423 -0.644675,-0.265062 -1.263737,-0.118969 -1.882335,0.195042 -0.241816,0.122753 -0.930739,0.587876 -0.704926,0.424992 1.260805,-0.909432 2.54095,-1.777165 3.811428,-2.665737 -1.816623,1.534526 -3.264703,3.685558 -4.268032,6.104301 -0.212401,0.512023 -0.374834,1.053486 -0.562248,1.580225 -0.506782,1.937744 -0.970298,4.627548 0.455974,6.200223 0.207963,0.229306 0.47315,0.363842 0.709724,0.545766 2.336421,0.933604 4.291808,-0.147161 6.324273,-1.529122 -1.114436,0.767136 -2.187737,1.633936 -3.343313,2.30139 -0.446112,0.257673 0.811228,-0.691585 1.200888,-1.063931 1.638225,-1.565381 3.102014,-3.412181 4.626908,-5.138999 1.480944,-1.508289 2.866091,-3.258633 4.538897,-4.458748 1.73813,-1.246974 3.495988,-2.45136 5.243978,-3.677041 0.182383,-0.04887 0.360538,-0.146108 0.547144,-0.146537 1.251747,-0.0037 1.386594,1.879148 1.425633,2.988838 -0.205064,2.751345 -1.337948,5.183369 -2.510493,7.470833 -0.517574,0.953397 -1.071955,1.874359 -1.614826,2.805335 -0.0954,0.163626 -0.137136,0.412043 -0.287706,0.489481 -1.588593,0.817133 -3.182598,1.618074 -4.773894,2.427118 2.228944,-2.463226 4.273751,-5.179092 6.408276,-7.769498 1.745562,-1.884411 3.32895,-4.169122 5.363402,-5.612036 1.720323,-1.220126 3.459957,-2.398081 5.189925,-3.597124 0.158647,0.01593 0.332782,-0.03865 0.475891,0.04752 1.115973,0.671943 0.502837,3.270062 0.267507,4.298436 -0.838035,2.858251 -2.218148,5.396685 -3.473539,7.989963 -1.938578,4.114986 -0.486928,2.087932 -6.054603,5.052457 1.378112,-1.818494 2.714195,-3.691712 4.06634,-5.5421 1.409073,-1.89942 2.899,-3.736673 4.602478,-5.235117 1.81283,-1.594633 6.288407,-4.540787 6.868867,-4.948201 1.192047,-0.574881 2.887699,-1.620123 4.070535,-0.420738 0.160662,0.162913 0.274292,0.386044 0.411459,0.579066 1.020501,2.217302 0.692721,4.276197 0.09272,6.588424 -0.726691,2.345247 -1.861963,4.428626 -2.980148,6.505584 0,0 -4.903616,2.650663 -4.903616,2.650663 v 0 c 1.125271,-2.036319 2.291599,-4.055571 3.051947,-6.354231 0.57126,-1.936175 1.009777,-4.007035 0.107634,-5.90789 -0.101554,-0.125231 -0.183968,-0.279836 -0.304584,-0.375706 -1.013894,-0.80596 -2.768358,0.392565 -3.691705,0.855145 1.134495,-0.835714 2.264169,-1.681506 3.403477,-2.507158 0.408906,-0.296345 -0.818059,0.593524 -1.21217,0.919124 -1.726849,1.426646 -3.232146,3.224128 -4.633084,5.109165 -1.310772,1.825015 -2.665251,3.604107 -3.896112,5.514431 -1.712771,0.972082 -3.402693,2.008343 -5.138313,2.916246 -0.325318,0.170166 0.06291,-0.298985 0.180767,-0.517914 0.383588,-0.712674 0.684686,-1.493617 1.071976,-2.203606 1.253956,-2.548996 2.634836,-5.036506 3.510286,-7.833217 0.163267,-0.599049 0.685751,-2.424633 0.366934,-3.073073 -0.08814,-0.179282 -0.482505,0.04519 -0.496619,0.05023 1.350799,-0.987935 2.701961,-1.97513 4.052405,-2.963807 0.260934,-0.191044 -0.5311,0.363732 -0.783887,0.570881 -1.211706,0.99293 -2.320338,2.197035 -3.393264,3.40317 -0.458098,0.514978 -0.903986,1.04634 -1.355972,1.569509 -2.097152,2.539002 -4.142964,5.137172 -6.184182,7.743987 -1.755223,0.964221 -3.494291,1.974807 -5.26568,2.892659 -0.04827,0.02507 0.01753,-0.130448 0.04342,-0.186706 0.07937,-0.17254 0.173125,-0.334808 0.269563,-0.493462 0.563166,-0.926565 1.15456,-1.828311 1.685671,-2.785591 1.166304,-2.161775 2.284476,-4.465221 2.595217,-7.080132 7.22e-4,-1.409324 -0.04081,-2.454955 -1.390543,-1.717437 9.872747,-7.213583 4.205057,-3.133779 3.231729,-2.326203 -0.989112,0.820682 -1.913009,1.724914 -2.820859,2.676524 -0.362847,0.380345 -0.724108,0.763009 -1.086166,1.14451 -1.536335,1.719623 -2.991118,3.582603 -4.59974,5.199383 -2.167782,2.178775 -4.302324,3.380363 -6.917693,5.290604 -2.263651,1.397377 -4.242397,2.270169 -6.70716,0.990198 -0.265179,-0.241846 -0.562197,-0.437834 -0.795523,-0.725581 -1.484489,-1.830726 -1.21018,-4.610695 -0.660963,-6.854778 0.180959,-0.551217 0.335676,-1.116754 0.542842,-1.653655 0.954116,-2.472694 2.360224,-4.688247 4.096286,-6.384653 1.8061,-1.283391 3.592424,-2.61036 5.418303,-3.850159 0.952143,-0.64652 2.19239,-0.757756 3.063315,0.09923 0.08434,0.169997 0.204872,0.319592 0.252994,0.509963 0.331156,1.309993 -1.489227,3.316473 -2.104752,4.048112 -4.660823,4.833334 -10.066211,8.369488 -15.368943,11.993797 -3.120385,2.060761 -6.262801,4.073579 -9.433326,6.013537 0,0 4.25748,-4.174941 4.25748,-4.174941 z"
       inkscape:connector-curvature="0"
       style="stroke-width:0.80610579" />
    <path
       id="path4894"
       d="m 105.95057,81.745105 c -1.78056,-0.401623 -3.58726,-0.630782 -5.39694,-0.615609 -0.989904,0.136418 -1.965059,0.400112 -2.892796,0.855654 -1.479032,0.726224 -5.93359,4.013787 1.813049,-1.37251 -1.710668,1.37259 -2.791783,2.875 -3.593886,5.180264 -0.217362,1.024763 -0.609994,2.819478 0.262969,3.605766 0.12689,0.114274 0.290126,0.148203 0.435183,0.222288 1.977917,0.530027 3.841741,-0.613951 5.550671,-1.711921 3.5127,-2.446334 -1.29463,0.957215 -1.96747,1.3767 -0.453937,0.283023 0.8591,-0.673136 1.27789,-1.02959 1.16041,-0.987683 2.23815,-2.101786 3.32442,-3.207754 1.08292,-1.15839 2.11549,-2.400109 3.08034,-3.709997 1.66198,-0.897003 3.2729,-1.955588 4.98591,-2.690998 0.1399,-0.05999 0.0245,0.368382 0.001,0.549451 -0.0449,0.366248 -0.26382,0.94841 -0.36769,1.27109 -0.30542,0.948857 -0.21337,0.653805 -0.47045,1.659291 -0.33325,1.659339 -0.68359,3.055111 -10e-4,4.637485 0.69829,1.065797 1.11953,1.084217 2.11106,0.676449 0.16979,-0.110508 0.34237,-0.214562 0.50928,-0.331554 0.45311,-0.317627 1.80416,-1.288472 1.35257,-0.967579 -7.38024,5.244047 -3.5923,2.57066 -2.01171,1.22244 2.04657,-1.804676 4.00365,-3.758285 5.95203,-5.720491 1.37703,-1.445763 2.86568,-2.708508 4.373,-3.933372 1.39912,-1.000183 4.59791,-5.446719 6.19748,-3.15026 0.11421,0.163968 0.19384,0.360439 0.29075,0.540656 0.849,1.826456 0.84672,3.895238 0.70286,5.929743 -0.18887,2.236365 -0.80516,4.334474 -1.49615,6.393964 -0.25644,-0.74149 -0.0661,0.83741 -0.1943,0.663636 -0.0961,-0.130314 -0.0333,-0.558991 -0.16407,-0.488779 -4.89356,2.626751 -5.65218,4.639098 -3.66483,1.792417 1.71723,-2.369041 3.33912,-4.83927 5.01079,-7.256918 1.02941,-1.329139 1.99274,-2.784496 3.1831,-3.904642 4.26172,-2.836334 5.33945,-5.451062 6.67706,-0.35112 0.49774,2.848512 0.0437,5.708745 -0.48343,8.493571 -0.3352,1.579596 -0.18532,0.833804 -0.4549,2.235755 0,0 -4.85006,2.87743 -4.85006,2.87743 v 0 c 0.29501,-1.433713 0.12997,-0.67907 0.50179,-2.261687 0.5443,-2.659756 1.0178,-5.39367 0.56524,-8.133558 -0.17895,-0.68218 -0.32774,-1.428857 -0.78132,-1.928706 -0.2156,-0.237609 -0.25738,-0.186501 -0.50684,-0.183384 1.46701,-1.060416 2.93399,-2.120825 4.40101,-3.181243 -1.351,0.844915 -2.24806,2.540002 -3.34799,3.772111 -1.67802,2.382786 -3.2825,4.841038 -4.95992,7.224207 -0.16928,0.251335 -0.34408,0.497141 -0.50786,0.753988 -0.10476,0.164406 -0.15335,0.399371 -0.2975,0.509039 -1.63621,1.244705 -4.55116,5.199581 -5.23511,2.978727 -0.0515,-0.167218 0.18037,-0.773122 0.19559,-0.820611 0.73283,-1.997634 1.40956,-4.030195 1.61375,-6.232296 0.16127,-1.869732 0.22544,-3.795605 -0.5875,-5.470555 -0.14151,-0.232425 -0.19953,-0.422802 -0.4415,-0.500304 -0.12804,-0.04108 -0.48812,0.247775 -0.37378,0.165352 4.71605,-3.399756 5.8141,-4.246821 4.05703,-2.900008 -1.54738,1.21151 -3.08399,2.452754 -4.49001,3.910416 -1.94015,1.967175 -3.89065,3.922075 -5.91704,5.752575 -2.29154,2.055095 -4.60702,3.563872 -7.13795,5.38136 -0.27732,0.199144 -1.09394,0.767615 -1.41539,0.939395 -0.18742,0.100142 -0.38627,0.163695 -0.57941,0.24554 -1.14664,0.194807 -1.8234,-0.242558 -2.49784,-1.410763 -0.78248,-1.838329 -0.52453,-3.155245 -0.1673,-5.112739 0.99211,-4.443001 1.09652,-3.313922 5.79095,-6.151462 -0.38592,0.256286 -0.68001,0.720552 -0.98697,1.098268 -0.73336,0.902411 -1.43697,1.843879 -2.23525,2.661702 -1.0955,1.114909 -2.17132,2.269434 -3.32969,3.285383 -1.99791,1.752238 -5.89337,4.415761 -7.088685,5.271381 -0.423431,0.303085 -0.860718,0.575508 -1.291078,0.86326 -1.848023,1.090824 -3.89095,2.192029 -5.939184,1.270567 -0.184191,-0.149695 -0.391323,-0.263197 -0.552536,-0.449042 -0.935004,-1.077865 -0.735165,-2.884199 -0.49004,-4.24883 0.738749,-2.439519 1.736224,-4.077244 3.490565,-5.567199 3.520006,-2.572985 6.319408,-5.447295 10.398458,-5.780389 1.85003,0.045 3.69024,0.295226 5.516,0.667122 0,0 -4.45531,3.841464 -4.45531,3.841464 z"
       inkscape:connector-curvature="0"
       style="stroke-width:0.80610579" />
    <path
       id="path4896"
       d="m 141.13568,87.968785 c 0.21844,-0.156438 0.4326,-0.322403 0.65532,-0.469342 0.2976,-0.196363 0.60327,-0.373365 0.90493,-0.560039 0.34731,-0.221918 0.69779,-0.436425 1.04194,-0.665738 1.46925,-0.978948 5.89351,-4.136868 -0.77386,0.58846 2.61207,-1.892822 5.08646,-4.080905 7.36187,-6.550134 1.29823,-1.489421 2.42984,-3.15918 3.15926,-5.162679 0.25909,-0.870534 0.36183,-1.151584 -0.33344,-1.545853 -0.92215,-0.350477 -1.86218,0.217985 -2.70624,0.63132 -1.5727,1.164801 -5.05733,2.949612 2.22808,-1.573481 0.31571,-0.195991 -0.5717,0.51405 -0.84619,0.789069 -0.78645,0.787889 -0.80659,0.87261 -1.50053,1.775565 -1.30883,1.8358 -2.04033,4.016865 -2.4549,6.378246 -0.23647,2.195043 0.0925,2.922463 1.7659,3.615564 1.91172,0.63748 3.82553,0.302546 5.72106,-0.213072 2.12642,-0.535093 9.26731,-5.759189 1.24496,-0.07558 2.12403,-1.557088 4.23592,-3.146654 6.22048,-4.96661 0.83786,-0.781921 1.65593,-1.595179 2.46775,-2.417809 0,0 5.03332,-2.49907 5.03332,-2.49907 v 0 c -0.85147,0.822838 -1.68235,1.678178 -2.5492,2.476688 -1.95516,1.872436 -4.07192,3.456302 -6.18657,5.035969 -3.36946,2.401274 -6.68708,5.195804 -10.49384,6.444789 -1.97417,0.467438 -3.97365,0.698139 -5.92714,-0.06708 -0.25536,-0.133455 -0.52374,-0.233882 -0.76611,-0.400378 -1.23218,-0.846375 -1.55895,-2.401426 -1.36611,-4.035853 0.38475,-2.454067 1.06924,-4.745332 2.35795,-6.712847 2.47221,-3.532729 5.89377,-5.728043 9.29741,-7.666236 0.98494,-0.428782 2.03891,-0.836961 3.02763,-0.195821 0.79789,0.646456 1.00701,1.264029 0.68718,2.420484 -0.68558,2.131814 -1.83878,3.900784 -3.1675,5.485204 -2.2433,2.542226 -4.74222,4.739493 -7.34529,6.68236 -3.63966,2.61102 -7.26667,5.236855 -10.9834,7.673433 0,0 4.22528,-4.219553 4.22528,-4.219553 z"
       inkscape:connector-curvature="0"
       style="stroke-width:0.80610579" />
    <path
       id="path4898"
       d="m 172.3264,78.899442 c -0.74837,-1.890388 -1.84632,-1.983618 -3.39765,-1.762386 -2.62903,0.720101 -5.07416,2.177424 -7.42132,3.771088 6.6919,-4.807759 2.94284,-2.242549 1.69599,-0.63921 -0.60592,0.779167 -0.96294,1.614295 -1.29378,2.597858 -0.24007,1.007771 -0.56472,2.440616 0.18006,3.270254 0.1152,0.128342 0.25999,0.208904 0.38999,0.313355 1.58947,0.682476 3.33065,0.208531 4.93869,-0.140448 2.62466,-0.645056 5.20006,-1.525381 7.75067,-2.517485 2.97745,-1.198069 5.81603,-2.836282 8.5967,-4.601163 0.5358,-0.378487 2.14804,-1.503276 1.60742,-1.135451 -0.92124,0.626755 -1.78373,1.397782 -2.74926,1.912323 -0.66582,0.354803 1.23577,-0.938634 1.84268,-1.429216 1.96768,-1.590583 3.83197,-3.321762 5.67714,-5.119588 3.52594,-3.485488 6.40266,-7.662451 8.89426,-12.289632 1.13058,-2.43472 2.48978,-5.037798 2.63838,-7.93354 0.0193,-0.37204 -0.022,-0.745102 -0.0323,-1.117652 -0.78993,-3.266187 -3.23329,-4.0386 -5.63456,-4.798751 -0.76386,-0.146877 -1.5226,-0.343335 -2.29162,-0.440689 -2.16502,-0.274074 -4.43898,-0.271161 -6.60389,-0.205616 -5.31723,0.160982 -10.59195,0.80599 -15.88065,1.460686 -17.63219,2.362502 -35.07085,6.419127 -52.47106,10.582009 -19.360305,4.794933 -38.668496,9.901026 -58.038648,14.636541 -1.927214,0.44566 -3.854436,0.891308 -5.781659,1.336967 0,0 3.764006,-3.511406 3.764006,-3.511406 v 0 c 1.86835,-0.393677 3.7367,-0.787354 5.60505,-1.181032 19.280789,-4.435729 38.460481,-9.487801 57.680541,-14.303461 17.57363,-4.271822 35.18083,-8.46451 52.98509,-10.998556 5.38336,-0.713875 10.75698,-1.430142 16.17204,-1.654665 2.27289,-0.09424 4.53474,-0.120149 6.80031,0.155354 0.7973,0.09696 1.58408,0.298208 2.37614,0.447297 2.24727,0.730179 4.57784,1.470975 5.7312,4.261085 0.1534,0.371045 0.23529,0.781051 0.35288,1.171574 0.0219,0.412973 0.0779,0.825338 0.0654,1.238919 -0.0886,3.009498 -1.49075,5.735423 -2.65182,8.262072 -0.96899,1.823274 -1.27344,2.47519 -2.3807,4.223759 -1.92309,3.036947 -4.11004,5.800197 -6.4991,8.27755 -4.7467,4.716348 -9.87757,8.724732 -15.2797,12.219448 -2.80965,1.75404 -5.67794,3.377743 -8.68578,4.548046 -2.57258,0.984916 -5.17561,1.849172 -7.82267,2.473274 -1.73302,0.346036 -3.61866,0.80164 -5.25239,-0.241168 -0.15781,-0.159083 -0.33367,-0.294107 -0.4734,-0.477238 -0.81412,-1.066928 -0.69297,-2.584516 -0.40194,-3.885644 0.23238,-0.837265 0.27958,-1.154793 0.66539,-1.924831 1.70288,-3.398654 5.58849,-4.98995 7.94214,-6.951406 2.40601,-1.562628 4.90798,-3.055605 7.61307,-3.600015 0.32318,-0.0098 0.64711,-0.05855 0.96949,-0.02913 1.28659,0.117814 2.24095,1.024724 2.83446,2.400564 0,0 -4.72532,3.329243 -4.72532,3.329243 z"
       inkscape:connector-curvature="0"
       style="stroke-width:0.80610579" />
  </g>
</svg>
