<?xml version="1.0" encoding="UTF-8" standalone="no"?>
<!-- Created with Inkscape (http://www.inkscape.org/) -->

<svg
   xmlns:dc="http://purl.org/dc/elements/1.1/"
   xmlns:cc="http://creativecommons.org/ns#"
   xmlns:rdf="http://www.w3.org/1999/02/22-rdf-syntax-ns#"
   xmlns:svg="http://www.w3.org/2000/svg"
   xmlns="http://www.w3.org/2000/svg"
   xmlns:sodipodi="http://sodipodi.sourceforge.net/DTD/sodipodi-0.dtd"
   xmlns:inkscape="http://www.inkscape.org/namespaces/inkscape"
   width="210mm"
   height="129mm"
   viewBox="0 0 210 129"
   version="1.1"
   id="svg8"
   inkscape:version="0.92.2 (unknown)"
   sodipodi:docname="sign.svg">
  <defs
     id="defs2" />
  <sodipodi:namedview
     id="base"
     pagecolor="#ffffff"
     bordercolor="#666666"
     borderopacity="1.0"
     inkscape:pageopacity="0.0"
     inkscape:pageshadow="2"
     inkscape:zoom="0.70000001"
     inkscape:cx="608.9928"
     inkscape:cy="300.99473"
     inkscape:document-units="mm"
     inkscape:current-layer="layer1"
     showgrid="false"
     inkscape:window-width="1920"
     inkscape:window-height="1056"
     inkscape:window-x="0"
     inkscape:window-y="24"
     inkscape:window-maximized="1"
     showguides="true"
     inkscape:guide-bbox="true" />
  <metadata
     id="metadata5">
    <rdf:RDF>
      <cc:Work
         rdf:about="">
        <dc:format>image/svg+xml</dc:format>
        <dc:type
           rdf:resource="http://purl.org/dc/dcmitype/StillImage" />
        <dc:title></dc:title>
      </cc:Work>
    </rdf:RDF>
  </metadata>
  <g
     inkscape:label="Layer 1"
     inkscape:groupmode="layer"
     id="layer1"
     transform="translate(0,-168)">
    <path
       id="path4878"
       d="m 17.086048,223.3998 c 2.679975,-4.14598 6.194535,-7.33324 9.54793,-10.5878 3.902576,-3.70292 7.969491,-7.14045 12.219884,-10.20428 7.049196,-5.08132 4.900276,-3.70402 9.523993,-6.48615 1.426963,-0.64839 4.363241,-2.67826 5.845242,-1.00764 0.612102,0.69001 0.592791,1.50296 0.726339,2.42399 0.02273,2.79796 -0.933586,5.43287 -0.972776,8.22404 -0.0066,0.43885 0.04282,0.87623 0.06419,1.31434 0.09928,0.33823 0.144143,0.70919 0.297874,1.01465 1.07852,2.14319 4.451193,0.97722 5.953084,0.53491 0.617692,-0.2597 1.241435,-0.49834 1.853075,-0.77913 1.383433,-0.63512 2.351064,-1.15979 3.658427,-2.0004 0.548731,-0.35284 2.157571,-1.49698 1.619281,-1.1203 -3.59644,2.51663 -4.060841,2.96653 -2.024376,1.24523 1.984168,-1.8862 3.943751,-3.50489 6.332135,-4.78549 0.195832,-0.10499 0.304433,0.42782 0.312101,0.69172 0.01586,0.54974 -0.808829,1.63366 -0.960439,1.8696 -4.064385,6.34005 -8.214498,12.58223 -12.518881,18.67563 -5.527965,7.68821 -11.355806,15.04924 -17.448324,22.05416 -4.152628,4.77451 -5.841796,6.50172 -10.110545,11.07146 -4.328933,4.56743 -8.739966,9.02639 -13.312821,13.21718 -1.15419,1.05776 -4.673793,4.16447 -6.098532,5.22316 -2.1309172,1.58344 -4.3129019,3.05917 -6.4693579,4.58875 -0.5045342,0.1997 -0.9859508,0.54128 -1.5136015,0.59906 -0.9227486,0.10109 -1.2849219,-0.6299 -1.2084613,-1.71566 0.1718925,-2.44108 2.5259549,-5.82558 3.6077793,-7.62737 6.8092994,-10.06303 14.7700654,-18.81089 22.4391724,-27.84104 8.992299,-10.62122 17.911226,-21.33691 26.411896,-32.56383 3.875799,-5.17587 7.465761,-10.70175 10.426474,-16.74431 1.399685,-2.85666 1.714132,-3.80408 2.864736,-6.70995 0.859969,-2.70819 2.407205,-6.43696 2.184219,-9.47063 -0.01944,-0.26309 -0.09961,-0.51377 -0.149436,-0.77066 -0.172824,-0.35265 -0.421581,-0.9505 -0.817862,-1.00808 -0.207172,-0.0302 -0.717865,0.52534 -0.533495,0.40466 1.430877,-0.93661 2.830816,-1.94384 4.246226,-2.91575 -2.30693,2.83813 -3.771179,6.557 -5.346102,10.03084 -4.89266,10.6181 -8.963081,21.76127 -12.932484,32.93951 -5.749424,16.52845 -10.961806,33.33076 -16.056763,50.18116 -2.627133,8.51277 -4.821011,17.20862 -6.944252,25.92847 0,0 -4.618228,2.69458 -4.618228,2.69458 v 0 c 2.351513,-8.79483 4.670446,-17.60584 7.407537,-26.23332 5.184576,-16.8031 10.397076,-33.5974 16.015334,-50.1876 3.838444,-11.08562 7.757701,-22.14698 12.450247,-32.73046 1.506166,-3.46748 2.904644,-7.10543 5.004157,-10.09927 1.681516,-1.25921 3.333465,-2.58097 5.044549,-3.77764 0.733166,-0.51275 1.598164,0.96546 1.828522,1.60173 0.06151,0.3119 0.158884,0.6162 0.184572,0.93567 0.06834,0.85029 -0.06905,1.95599 -0.213439,2.75924 -0.445172,2.47648 -1.269603,4.80833 -2.106483,7.11207 -1.161576,2.90088 -1.535953,3.98394 -2.937702,6.83054 -3.014681,6.12205 -6.660145,11.72574 -10.608736,16.95855 -8.559623,11.23466 -17.520292,21.9767 -26.528488,32.65787 -7.539853,8.92659 -15.366098,17.57932 -22.050659,27.52713 -1.2985074,2.17158 -2.8363955,4.38296 -3.5160528,7.0138 -0.057098,0.2211 -0.1770424,0.52688 -0.0468,0.69401 0.4794251,0.61538 1.8870323,-0.70036 2.0344875,-0.48779 -0.7502333,0.56539 -2.9373219,2.37415 -2.2507115,1.69615 0.8794018,-0.86835 1.9004946,-1.49146 2.8327406,-2.27087 1.1776552,-0.98457 2.3467092,-1.98568 3.4960212,-3.02026 4.65579,-4.19103 9.135755,-8.67894 13.526511,-13.28368 4.259182,-4.53886 5.99091,-6.29954 10.124704,-11.04786 6.036472,-6.93384 11.800056,-14.23714 17.241092,-21.88826 4.170876,-5.9819 8.19731,-12.10021 12.051878,-18.39951 0.140924,-0.22043 0.789226,-1.36941 1.015824,-1.35414 0.144774,0.01 0.164609,0.47255 0.295396,0.39508 7.293036,-4.32035 4.771058,-3.91498 2.861604,-1.82455 -2.868402,2.51131 -1.219386,1.1273 -6.998175,5.23149 -2.274026,1.61505 -4.70518,2.87219 -7.226716,3.75932 -1.974365,0.50017 -5.163764,1.45835 -6.466226,-1.24779 -0.174933,-0.36343 -0.234176,-0.79485 -0.351268,-1.19228 -0.02684,-0.47036 -0.08259,-0.93957 -0.08033,-1.41109 0.01317,-2.74646 0.909849,-5.33403 0.999743,-8.06812 -0.05921,-0.58049 -0.02081,-1.40601 -0.464236,-1.84084 -1.288289,-1.26339 -4.214696,0.78257 -5.382185,1.28588 -0.794634,0.48465 -1.53124,1.1564 -2.383892,1.45393 -0.579203,0.20213 2.061628,-1.5375 1.542706,-1.16039 -4.22642,3.07141 -8.337288,6.37864 -12.204369,10.11359 -3.244339,3.15882 -6.625558,6.25495 -9.266898,10.21943 0,0 -4.971565,2.69161 -4.971565,2.69161 z"
       inkscape:connector-curvature="0"
       style="stroke-width:0.80610579" />
    <path
       id="path4892"
       d="m 42.694594,260.99845 c 3.086718,-1.89574 6.159129,-3.82719 9.196756,-5.84089 5.805029,-4.04198 -0.02027,0.0762 -0.04616,0.0776 -0.794839,0.0417 1.355766,-1.03082 2.023822,-1.56535 1.564504,-1.25178 3.035678,-2.59457 4.472076,-4.05827 0.336721,-0.37394 2.566913,-2.86658 2.049993,-3.59423 -0.644675,-0.26506 -1.263737,-0.11897 -1.882335,0.19504 -0.241816,0.12275 -0.930739,0.58788 -0.704926,0.42499 1.260805,-0.90943 2.54095,-1.77716 3.811428,-2.66573 -1.816623,1.53452 -3.264703,3.68555 -4.268032,6.1043 -0.212401,0.51202 -0.374834,1.05348 -0.562248,1.58022 -0.506782,1.93775 -0.970298,4.62755 0.455974,6.20023 0.207963,0.2293 0.47315,0.36384 0.709724,0.54576 2.336421,0.93361 4.291808,-0.14716 6.324273,-1.52912 -1.114436,0.76714 -2.187737,1.63394 -3.343313,2.30139 -0.446112,0.25767 0.811228,-0.69159 1.200888,-1.06393 1.638225,-1.56538 3.102014,-3.41218 4.626908,-5.139 1.480944,-1.50829 2.866091,-3.25863 4.538897,-4.45875 1.73813,-1.24697 3.495988,-2.45136 5.243978,-3.67704 0.182383,-0.0489 0.360538,-0.14611 0.547144,-0.14654 1.251747,-0.004 1.386594,1.87915 1.425633,2.98884 -0.205064,2.75135 -1.337948,5.18337 -2.510493,7.47083 -0.517574,0.9534 -1.071955,1.87436 -1.614826,2.80534 -0.0954,0.16363 -0.137136,0.41204 -0.287706,0.48948 -1.588593,0.81713 -3.182598,1.61807 -4.773894,2.42712 2.228944,-2.46323 4.273751,-5.17909 6.408276,-7.7695 1.745562,-1.88441 3.32895,-4.16912 5.363402,-5.61204 1.720323,-1.22012 3.459957,-2.39808 5.189925,-3.59712 0.158647,0.0159 0.332782,-0.0387 0.475891,0.0475 1.115973,0.67194 0.502837,3.27006 0.267507,4.29844 -0.838035,2.85825 -2.218148,5.39668 -3.473539,7.98996 -1.938578,4.11499 -0.486928,2.08793 -6.054603,5.05246 1.378112,-1.8185 2.714195,-3.69172 4.06634,-5.5421 1.409073,-1.89942 2.899,-3.73668 4.602478,-5.23512 1.81283,-1.59463 6.288407,-4.54079 6.868867,-4.9482 1.192047,-0.57488 2.887699,-1.62012 4.070535,-0.42074 0.160662,0.16291 0.274292,0.38604 0.411459,0.57907 1.020501,2.2173 0.692721,4.27619 0.09272,6.58842 -0.726691,2.34525 -1.861963,4.42863 -2.980148,6.50558 0,0 -4.903616,2.65067 -4.903616,2.65067 v 0 c 1.125271,-2.03632 2.291599,-4.05557 3.051947,-6.35423 0.57126,-1.93618 1.009777,-4.00704 0.107634,-5.90789 -0.101554,-0.12523 -0.183968,-0.27984 -0.304584,-0.37571 -1.013894,-0.80596 -2.768358,0.39257 -3.691705,0.85515 1.134495,-0.83572 2.264169,-1.68151 3.403477,-2.50716 0.408906,-0.29635 -0.818059,0.59352 -1.21217,0.91912 -1.726849,1.42665 -3.232146,3.22413 -4.633084,5.10917 -1.310772,1.82501 -2.665251,3.6041 -3.896112,5.51443 -1.712771,0.97208 -3.402693,2.00834 -5.138313,2.91624 -0.325318,0.17017 0.06291,-0.29898 0.180767,-0.51791 0.383588,-0.71267 0.684686,-1.49362 1.071976,-2.20361 1.253956,-2.54899 2.634836,-5.0365 3.510286,-7.83321 0.163267,-0.59905 0.685751,-2.42464 0.366934,-3.07308 -0.08814,-0.17928 -0.482505,0.0452 -0.496619,0.0502 1.350799,-0.98793 2.701961,-1.97513 4.052405,-2.9638 0.260934,-0.19105 -0.5311,0.36373 -0.783887,0.57088 -1.211706,0.99293 -2.320338,2.19703 -3.393264,3.40317 -0.458098,0.51498 -0.903986,1.04634 -1.355972,1.56951 -2.097152,2.539 -4.142964,5.13717 -6.184182,7.74398 -1.755223,0.96422 -3.494291,1.97481 -5.26568,2.89266 -0.04827,0.0251 0.01753,-0.13045 0.04342,-0.1867 0.07937,-0.17254 0.173125,-0.33481 0.269563,-0.49347 0.563166,-0.92656 1.15456,-1.82831 1.685671,-2.78559 1.166304,-2.16177 2.284476,-4.46522 2.595217,-7.08013 7.22e-4,-1.40932 -0.04081,-2.45495 -1.390543,-1.71744 9.872747,-7.21358 4.205057,-3.13377 3.231729,-2.3262 -0.989112,0.82068 -1.913009,1.72492 -2.820859,2.67653 -0.362847,0.38034 -0.724108,0.763 -1.086166,1.14451 -1.536335,1.71962 -2.991118,3.5826 -4.59974,5.19938 -2.167782,2.17877 -4.302324,3.38036 -6.917693,5.2906 -2.263651,1.39738 -4.242397,2.27017 -6.70716,0.9902 -0.265179,-0.24185 -0.562197,-0.43783 -0.795523,-0.72558 -1.484489,-1.83073 -1.21018,-4.6107 -0.660963,-6.85478 0.180959,-0.55122 0.335676,-1.11675 0.542842,-1.65365 0.954116,-2.4727 2.360224,-4.68825 4.096286,-6.38466 1.8061,-1.28339 3.592424,-2.61036 5.418303,-3.85016 0.952143,-0.64652 2.19239,-0.75775 3.063315,0.0992 0.08434,0.17 0.204872,0.3196 0.252994,0.50997 0.331156,1.30999 -1.489227,3.31647 -2.104752,4.04811 -4.660823,4.83333 -10.066211,8.36949 -15.368943,11.9938 -3.120385,2.06076 -6.262801,4.07358 -9.433326,6.01353 0,0 4.25748,-4.17494 4.25748,-4.17494 z"
       inkscape:connector-curvature="0"
       style="stroke-width:0.80610579" />
    <path
       id="path4894"
       d="m 105.95057,248.81058 c -1.78056,-0.40162 -3.58726,-0.63078 -5.39694,-0.61561 -0.989905,0.13642 -1.96506,0.40011 -2.892797,0.85566 -1.479032,0.72622 -5.93359,4.01378 1.813049,-1.37251 -1.710668,1.37259 -2.791783,2.875 -3.593886,5.18026 -0.217362,1.02476 -0.609994,2.81948 0.262969,3.60577 0.12689,0.11427 0.290126,0.1482 0.435183,0.22228 1.977917,0.53003 3.841742,-0.61395 5.550672,-1.71192 3.5127,-2.44633 -1.29463,0.95722 -1.96747,1.3767 -0.453937,0.28303 0.8591,-0.67313 1.27789,-1.02959 1.16041,-0.98768 2.23815,-2.10178 3.32442,-3.20775 1.08292,-1.15839 2.11549,-2.40011 3.08034,-3.71 1.66198,-0.897 3.2729,-1.95559 4.98591,-2.691 0.1399,-0.06 0.0245,0.36839 0.001,0.54946 -0.0449,0.36624 -0.26382,0.94841 -0.36769,1.27109 -0.30542,0.94885 -0.21337,0.6538 -0.47045,1.65929 -0.33325,1.65934 -0.68359,3.05511 -10e-4,4.63748 0.69829,1.0658 1.11953,1.08422 2.11106,0.67645 0.16979,-0.11051 0.34237,-0.21456 0.50928,-0.33155 0.45311,-0.31763 1.80416,-1.28848 1.35257,-0.96758 -7.38024,5.24404 -3.5923,2.57066 -2.01171,1.22244 2.04657,-1.80468 4.00365,-3.75829 5.95203,-5.72049 1.37703,-1.44577 2.86568,-2.70851 4.373,-3.93338 1.39912,-1.00018 4.59791,-5.44671 6.19748,-3.15026 0.11421,0.16397 0.19384,0.36044 0.29075,0.54066 0.849,1.82646 0.84672,3.89524 0.70286,5.92974 -0.18887,2.23637 -0.80516,4.33448 -1.49615,6.39397 -0.25644,-0.74149 -0.0661,0.83741 -0.1943,0.66363 -0.0961,-0.13031 -0.0333,-0.55899 -0.16407,-0.48878 -4.89356,2.62676 -5.65218,4.6391 -3.66483,1.79242 1.71723,-2.36904 3.33912,-4.83927 5.01079,-7.25692 1.02941,-1.32914 1.99274,-2.78449 3.1831,-3.90464 4.26172,-2.83633 5.33945,-5.45106 6.67706,-0.35112 0.49774,2.84851 0.0437,5.70875 -0.48343,8.49357 -0.3352,1.5796 -0.18532,0.83381 -0.4549,2.23576 0,0 -4.85006,2.87743 -4.85006,2.87743 v 0 c 0.29501,-1.43372 0.12997,-0.67907 0.50179,-2.26169 0.5443,-2.65976 1.0178,-5.39367 0.56524,-8.13356 -0.17895,-0.68218 -0.32774,-1.42885 -0.78132,-1.9287 -0.2156,-0.23761 -0.25738,-0.1865 -0.50684,-0.18339 1.46701,-1.06041 2.93399,-2.12082 4.40101,-3.18124 -1.351,0.84491 -2.24806,2.54 -3.34799,3.77211 -1.67802,2.38279 -3.2825,4.84104 -4.95992,7.22421 -0.16928,0.25133 -0.34408,0.49714 -0.50786,0.75399 -0.10476,0.1644 -0.15335,0.39937 -0.2975,0.50903 -1.63621,1.24471 -4.55116,5.19959 -5.23511,2.97873 -0.0515,-0.16722 0.18037,-0.77312 0.19559,-0.82061 0.73283,-1.99763 1.40956,-4.03019 1.61375,-6.2323 0.16127,-1.86973 0.22544,-3.7956 -0.5875,-5.47055 -0.14151,-0.23243 -0.19953,-0.4228 -0.4415,-0.5003 -0.12804,-0.0411 -0.48812,0.24777 -0.37378,0.16535 4.71605,-3.39976 5.8141,-4.24682 4.05703,-2.90001 -1.54738,1.21151 -3.08399,2.45275 -4.49001,3.91042 -1.94015,1.96717 -3.89065,3.92207 -5.91704,5.75257 -2.29154,2.0551 -4.60702,3.56387 -7.13795,5.38136 -0.27732,0.19914 -1.09394,0.76762 -1.41539,0.9394 -0.18742,0.10014 -0.38627,0.16369 -0.57941,0.24554 -1.14664,0.1948 -1.8234,-0.24256 -2.49784,-1.41077 -0.78248,-1.83833 -0.52453,-3.15524 -0.1673,-5.11274 0.99211,-4.443 1.09652,-3.31392 5.79095,-6.15146 -0.38592,0.25629 -0.68001,0.72055 -0.98697,1.09827 -0.73336,0.90241 -1.43697,1.84388 -2.23525,2.6617 -1.0955,1.11491 -2.17132,2.26944 -3.32969,3.28538 -1.99791,1.75224 -5.89337,4.41577 -7.088686,5.27139 -0.423431,0.30308 -0.860718,0.5755 -1.291078,0.86326 -1.848023,1.09082 -3.89095,2.19202 -5.939184,1.27056 -0.184191,-0.14969 -0.391323,-0.26319 -0.552536,-0.44904 -0.935004,-1.07786 -0.735165,-2.8842 -0.49004,-4.24883 0.738749,-2.43952 1.736224,-4.07724 3.490565,-5.5672 3.520006,-2.57298 6.319409,-5.44729 10.398459,-5.78039 1.85003,0.045 3.69024,0.29523 5.516,0.66712 0,0 -4.45531,3.84147 -4.45531,3.84147 z"
       inkscape:connector-curvature="0"
       style="stroke-width:0.80610579" />
    <path
       id="path4896"
       d="m 141.13568,255.03426 c 0.21844,-0.15644 0.4326,-0.3224 0.65532,-0.46934 0.2976,-0.19636 0.60327,-0.37337 0.90493,-0.56004 0.34731,-0.22192 0.69779,-0.43642 1.04194,-0.66574 1.46925,-0.97895 5.89351,-4.13687 -0.77386,0.58846 2.61207,-1.89282 5.08646,-4.0809 7.36187,-6.55013 1.29823,-1.48942 2.42984,-3.15918 3.15926,-5.16268 0.25909,-0.87053 0.36183,-1.15158 -0.33344,-1.54585 -0.92215,-0.35048 -1.86218,0.21798 -2.70624,0.63132 -1.5727,1.1648 -5.05733,2.94961 2.22808,-1.57348 0.31571,-0.196 -0.5717,0.51405 -0.84619,0.78906 -0.78645,0.78789 -0.80659,0.87261 -1.50053,1.77557 -1.30883,1.8358 -2.04033,4.01686 -2.4549,6.37825 -0.23647,2.19504 0.0925,2.92246 1.7659,3.61556 1.91172,0.63748 3.82553,0.30255 5.72106,-0.21307 2.12642,-0.5351 9.26731,-5.75919 1.24496,-0.0756 2.12403,-1.55709 4.23592,-3.14666 6.22048,-4.96661 0.83786,-0.78192 1.65593,-1.59518 2.46775,-2.41781 0,0 5.03332,-2.49907 5.03332,-2.49907 v 0 c -0.85147,0.82284 -1.68235,1.67818 -2.5492,2.47669 -1.95516,1.87243 -4.07192,3.4563 -6.18657,5.03597 -3.36946,2.40127 -6.68708,5.1958 -10.49384,6.44478 -1.97417,0.46744 -3.97365,0.69814 -5.92714,-0.0671 -0.25536,-0.13345 -0.52374,-0.23388 -0.76611,-0.40037 -1.23218,-0.84638 -1.55895,-2.40143 -1.36611,-4.03586 0.38475,-2.45406 1.06924,-4.74533 2.35795,-6.71284 2.47221,-3.53273 5.89377,-5.72805 9.29741,-7.66624 0.98494,-0.42878 2.03891,-0.83696 3.02763,-0.19582 0.79789,0.64646 1.00701,1.26403 0.68718,2.42048 -0.68558,2.13182 -1.83878,3.90079 -3.1675,5.48521 -2.2433,2.54222 -4.74222,4.73949 -7.34529,6.68236 -3.63966,2.61102 -7.26667,5.23685 -10.9834,7.67343 0,0 4.22528,-4.21955 4.22528,-4.21955 z"
       inkscape:connector-curvature="0"
       style="stroke-width:0.80610579" />
    <path
       id="path4898"
       d="m 172.3264,245.96492 c -0.74837,-1.89039 -1.84632,-1.98362 -3.39765,-1.76239 -2.62903,0.7201 -5.07416,2.17743 -7.42132,3.77109 6.6919,-4.80776 2.94284,-2.24255 1.69599,-0.63921 -0.60592,0.77917 -0.96294,1.6143 -1.29378,2.59786 -0.24007,1.00777 -0.56472,2.44061 0.18006,3.27025 0.1152,0.12834 0.25999,0.20891 0.38999,0.31336 1.58947,0.68247 3.33065,0.20853 4.93869,-0.14045 2.62466,-0.64506 5.20006,-1.52538 7.75067,-2.51749 2.97745,-1.19806 5.81603,-2.83628 8.5967,-4.60116 0.5358,-0.37849 2.14804,-1.50327 1.60742,-1.13545 -0.92124,0.62676 -1.78373,1.39778 -2.74926,1.91232 -0.66582,0.35481 1.23577,-0.93863 1.84268,-1.42921 1.96768,-1.59059 3.83197,-3.32176 5.67714,-5.11959 3.52594,-3.48549 6.40266,-7.66245 8.89426,-12.28963 1.13058,-2.43472 2.48978,-5.0378 2.63838,-7.93354 0.0193,-0.37204 -0.022,-0.7451 -0.0323,-1.11765 -0.78993,-3.26619 -3.23329,-4.0386 -5.63456,-4.79876 -0.76386,-0.14687 -1.5226,-0.34333 -2.29162,-0.44068 -2.16502,-0.27408 -4.43898,-0.27117 -6.60389,-0.20562 -5.31723,0.16098 -10.59195,0.80599 -15.88065,1.46069 -17.63219,2.3625 -35.07085,6.41912 -52.47106,10.582 -19.360306,4.79494 -38.668497,9.90103 -58.038649,14.63655 -1.927214,0.44566 -3.854436,0.8913 -5.781659,1.33696 0,0 3.764006,-3.5114 3.764006,-3.5114 v 0 c 1.86835,-0.39368 3.7367,-0.78736 5.60505,-1.18104 19.280789,-4.43572 38.460482,-9.4878 57.680542,-14.30346 17.57363,-4.27182 35.18083,-8.46451 52.98509,-10.99855 5.38336,-0.71388 10.75698,-1.43014 16.17204,-1.65467 2.27289,-0.0942 4.53474,-0.12015 6.80031,0.15536 0.7973,0.097 1.58408,0.2982 2.37614,0.44729 2.24727,0.73018 4.57784,1.47098 5.7312,4.26109 0.1534,0.37104 0.23529,0.78105 0.35288,1.17157 0.0219,0.41298 0.0779,0.82534 0.0654,1.23892 -0.0886,3.0095 -1.49075,5.73542 -2.65182,8.26207 -0.96899,1.82328 -1.27344,2.47519 -2.3807,4.22376 -1.92309,3.03695 -4.11004,5.8002 -6.4991,8.27755 -4.7467,4.71635 -9.87757,8.72473 -15.2797,12.21945 -2.80965,1.75404 -5.67794,3.37774 -8.68578,4.54805 -2.57258,0.98491 -5.17561,1.84917 -7.82267,2.47327 -1.73302,0.34604 -3.61866,0.80164 -5.25239,-0.24117 -0.15781,-0.15908 -0.33367,-0.2941 -0.4734,-0.47724 -0.81412,-1.06692 -0.69297,-2.58451 -0.40194,-3.88564 0.23238,-0.83726 0.27958,-1.15479 0.66539,-1.92483 1.70288,-3.39865 5.58849,-4.98995 7.94214,-6.95141 2.40601,-1.56262 4.90798,-3.0556 7.61307,-3.60001 0.32318,-0.01 0.64711,-0.0586 0.96949,-0.0291 1.28659,0.11781 2.24095,1.02472 2.83446,2.40056 0,0 -4.72532,3.32925 -4.72532,3.32925 z"
       inkscape:connector-curvature="0"
       style="stroke-width:0.80610579" />
  </g>
</svg>
